HIERARCHY
ROOT Hips
{
  OFFSET 279.157 85.6768 304.565
  CHANNELS 6 Xposition Yposition Zposition Zrotation Xrotation Yrotation
  JOINT LeftUpLeg
  {
    OFFSET 8.64259 1.95398 -2.38835
    CHANNELS 3 Zrotation Xrotation Yrotation
    JOINT LeftLeg
    {
      OFFSET 43.7702 0 0
      CHANNELS 3 Zrotation Xrotation Yrotation
      JOINT LeftFoot
      {
        OFFSET 40.6238 0 0
        CHANNELS 3 Zrotation Xrotation Yrotation
        JOINT LeftToeBase
        {
          OFFSET 12.7242 0 0
          CHANNELS 3 Zrotation Xrotation Yrotation
          End Site
          {
            OFFSET 0 0 0
          }
        }
      }
    }
  }
  JOINT RightUpLeg
  {
    OFFSET -8.2249 1.95398 -2.59336
    CHANNELS 3 Zrotation Xrotation Yrotation
    JOINT RightLeg
    {
      OFFSET 43.5653 0 0
      CHANNELS 3 Zrotation Xrotation Yrotation
      JOINT RightFoot
      {
        OFFSET 40.6238 0 0
        CHANNELS 3 Zrotation Xrotation Yrotation
        JOINT RightToeBase
        {
          OFFSET 12.7242 0 0
          CHANNELS 3 Zrotation Xrotation Yrotation
          End Site
          {
            OFFSET 0 0 0
          }
        }
      }
    }
  }
  JOINT Spine
  {
    OFFSET 0.165834 0.87714 6.61349
    CHANNELS 3 Zrotation Xrotation Yrotation
    JOINT Spine1
    {
      OFFSET 7.38963 1.71661e-005 0
      CHANNELS 3 Zrotation Xrotation Yrotation
      JOINT Spine2
      {
        OFFSET 11.9445 1.14441e-005 0
        CHANNELS 3 Zrotation Xrotation Yrotation
        JOINT Spine3
        {
          OFFSET 14.7254 4.19617e-005 0
          CHANNELS 3 Zrotation Xrotation Yrotation
          JOINT Spine4
          {
            OFFSET 10.9679 0 0
            CHANNELS 3 Zrotation Xrotation Yrotation
            JOINT RightShoulder
            {
              OFFSET 2.46616 -1.6653 3.69651
              CHANNELS 3 Zrotation Xrotation Yrotation
              JOINT RightArm
              {
                OFFSET 13.0012 0 0
                CHANNELS 3 Zrotation Xrotation Yrotation
                JOINT RightForeArm
                {
                  OFFSET 28.7848 1.52588e-005 0
                  CHANNELS 3 Zrotation Xrotation Yrotation
                  JOINT RightHand
                  {
                    OFFSET 26.5688 1.52588e-005 0
                    CHANNELS 3 Zrotation Xrotation Yrotation
                    End Site
                    {
                      OFFSET 0 0 0
                    }
                  }
                }
              }
            }
            JOINT LeftShoulder
            {
              OFFSET 2.38034 -1.29275 -3.7523
              CHANNELS 3 Zrotation Xrotation Yrotation
              JOINT LeftArm
              {
                OFFSET 16.3182 6.10351e-005 0
                CHANNELS 3 Zrotation Xrotation Yrotation
                JOINT LeftForeArm
                {
                  OFFSET 27.0901 0 0
                  CHANNELS 3 Zrotation Xrotation Yrotation
                  JOINT LeftHand
                  {
                    OFFSET 24.5451 1.52588e-005 0
                    CHANNELS 3 Zrotation Xrotation Yrotation
                    End Site
                    {
                      OFFSET 0 0 0
                    }
                  }
                }
              }
            }
            JOINT Neck
            {
              OFFSET 5.0226 -0.0266342 0
              CHANNELS 3 Zrotation Xrotation Yrotation
              JOINT Head
              {
                OFFSET 6.69364 2.86102e-005 0
                CHANNELS 3 Zrotation Xrotation Yrotation
                End Site
                {
                  OFFSET 0 0 0
                }
              }
            }
          }
        }
      }
    }
  }
}
MOTION
Frames:	10
Frame Time:	0.0416667
31.84 97.8975 -0.80619 -111.257 -70.3995 -113.804 -178.551 16.3793 85.8832 -9.39192 12.1827 -0.65072 56.3057 -1.61188 -4.59611 18.1417 -9.67328 10.465 173.303 -15.1213 89.1948 -26.7285 -25.1432 -3.06766 75.0842 -10.2489 -6.52944 30.7571 -1.24049 5.18758 1.78844 8.07543 -89.8359 10.7275 3.63714 -0.00816493 -0.938374 3.63324 -0.168454 -23.5118 3.47123 1.08666 -3.49916 3.47123 1.08666 85.9229 -29.0568 -115.206 28.0484 -3.52088 -16.0923 -8.64018 -26.758 -30.6955 -29.1391 -0.0994488 -11.3141 -87.7463 -59.3253 83.6182 -20.7568 3.45225 8.93812 2.06586 -4.31405 -4.66687 -1.09168 -0.0851003 -3.8845 6.27308 -9.55147 -0.265146 -3.58748 -9.18453 -9.85793 
29.2528 98.3875 9.44413 -108 -65.9928 -112.892 -176.346 16.4256 84.0036 -23.3619 11.1092 -2.13709 61.32 -0.377406 -7.04496 16.0017 -12.5595 13.7376 173.349 -11.4509 85.3799 -40.5857 -25.6372 -6.66842 63.2931 -2.11719 -3.54633 32.9885 -2.03284 7.74834 1.65739 7.93367 -89.4671 10.9982 3.54634 0.72287 -0.668004 3.57471 0.565886 -23.2339 3.165 1.7562 -3.22122 3.165 1.75619 87.1915 -28.887 -112.798 36.4953 -9.76643 -13.5304 -2.11871 -30.3605 -22.0126 -27.6449 -0.652518 -9.71261 -88.8231 -57.718 81.8906 -23.3823 3.01615 6.27294 2.67722 -4.33233 -4.09456 -4.04891 -0.078664 -5.61692 7.02212 -9.41291 -2.95833 -4.61407 -8.46484 -7.98211 
26.8437 98.95 17.4267 -106.763 -60.5963 -113.282 -175.186 10.0462 82.5701 -25.2148 7.06784 -3.37538 67.1675 2.95632 -6.23553 17.9705 -10.8055 13.0077 175.811 0.678082 82.8593 -61.3645 -22.1234 -7.31345 56.1131 2.04501 -0.630916 18.4857 2.2985 5.47571 1.11688 8.05347 -89.198 10.7498 2.59374 1.35531 -0.919101 2.65087 1.23978 -23.4629 2.06656 2.07227 -3.45024 2.06656 2.07226 86.195 -30.5409 -113.948 40.0765 -14.2892 -9.71469 4.70186 -28.208 -12.209 -22.4691 -0.682544 -9.24948 -89.4593 -56.7413 80.838 -22.1775 5.72029 -2.12249 1.7271 -7.60096 -3.13398 -0.129178 -0.108558 -5.49808 8.33947 -7.64478 -3.58271 -3.94157 -6.60293 -7.31744 
24.3291 99.8282 24.0653 -103.838 -54.9198 -108.86 -174.28 3.70514 83.7697 -23.7203 2.94574 -3.7499 71.484 5.59691 -5.16387 18.9171 -9.96093 12.594 178.684 12.2249 86.4998 -64.3313 -17.1721 -6.34305 63.0555 -2.5285 -3.74466 22.1281 1.15146 5.96644 0.566847 8.10058 -89.3628 10.6652 1.42249 1.13708 -1.0054 1.47115 1.07337 -23.5401 1.01503 1.512 -3.52749 1.01503 1.51199 86.1269 -31.3728 -113.685 42.1035 -12.7045 -3.37687 6.40791 -31.1642 -9.16968 -22.22 -1.36144 -6.07432 -90.1056 -56.0778 79.8135 -16.1166 6.29046 -11.8864 1.50159 -6.74003 -3.85605 1.01548 -0.122316 -5.39764 7.87412 -4.83615 -4.75081 -2.1054 -3.74268 -5.02355 
21.2514 100.211 30.5046 -100.352 -49.8138 -102.244 -173.972 -1.08579 85.3514 -22.1186 -1.84785 -2.64038 75.2641 7.11108 -4.15948 19.0655 -9.9144 12.7472 -179.794 18.3662 91.7967 -47.5357 -16.9636 -4.53108 66.257 -4.61435 -3.97701 22.822 0.611392 7.83075 0.0439846 8.01362 -89.7179 10.8458 0.217928 0.540682 -0.825257 0.241502 0.53056 -23.3595 0.0453676 0.58118 -3.34686 0.0453435 0.581168 87.4745 -31.0389 -111.262 41.9625 -9.98861 2.30528 5.35042 -27.2089 -9.93989 -22.0923 -0.850807 -8.01999 -89.5711 -52.022 79.7808 -11.682 4.57764 -16.4208 2.29177 -3.72675 -9.45192 4.88505 -0.141135 -5.16782 7.3967 -1.95749 -6.20486 -2.63958 -0.641925 -2.55457 
17.2598 99.4151 37.0766 -98.1441 -47.1556 -98.672 -173.818 -6.31129 85.6964 -19.9482 -5.36267 -2.01175 79.6666 9.15798 -4.29139 18.797 -9.95982 12.3651 178.491 18.5749 94.8088 -20.7947 -12.2661 -0.0885027 62.9753 -2.48066 -1.31426 22.9776 1.14885 4.63761 -0.493794 7.92349 -89.9731 11.0273 -0.970462 0.146817 -0.643328 -0.963062 0.189373 -23.1815 -0.969716 -0.151674 -3.16887 -0.969711 -0.151671 88.4886 -31.3449 -109.18 38.9773 -6.47684 7.55707 3.75282 -24.043 -12.4785 -22.388 -0.307158 -10.4024 -89.1194 -48.3528 79.7117 -8.05281 2.14707 -20.9585 3.73409 -0.244942 -12.098 3.95419 -0.283272 -7.92976 7.13167 0.306719 -6.4563 -2.65256 1.59426 0.747762 
12.1711 97.4297 44.2631 -96.5335 -45.9011 -96.5883 -173.237 -12.4104 85.7932 -17.8211 -6.76463 -2.01771 83.4335 12.2144 -3.62789 20.0751 -9.45908 13.4931 178.616 18.1455 96.8505 -6.00829 -1.34649 2.17183 63.3287 -3.02277 -0.922415 23.295 1.04723 4.64812 -0.730271 7.79379 -90.1379 11.2857 -1.51742 -0.123986 -0.384331 -1.52142 -0.0570745 -22.9257 -1.41 -0.574394 -2.91308 -1.41001 -0.574396 89.4342 -32.502 -106.919 37.5176 -2.89453 10.7553 3.09953 -21.2237 -10.9998 -25.4007 -0.564017 -7.56069 -89.4469 -47.8113 79.096 -4.91361 0.66461 -25.5379 4.21309 -0.0320655 -14.2526 2.30198 -0.331671 -10.1923 7.80887 1.068 -5.53017 -3.11612 2.16593 2.19979 
6.05388 96.408 52.5232 -97.1177 -47.3912 -95.9051 -171.68 -17.0485 87.9614 -20.1679 -5.21259 -1.58606 79.3541 11.1111 -2.43486 31.9799 -1.54529 15.581 177.773 21.73 97.6728 -18.0243 -3.31969 2.45254 62.3191 -0.328269 -3.26074 20.2245 2.06076 4.29232 -1.00538 7.73863 -90.4306 11.393 -2.20141 -0.63551 -0.276229 -2.22721 -0.537975 -22.8221 -1.90861 -1.26793 -2.80944 -1.90862 -1.26794 90.1525 -33.552 -105.18 37.5088 -1.13507 10.3016 5.52935 -20.1561 -5.36697 -21.7712 -0.695613 -6.77415 -90.2734 -49.3339 78.1731 -8.65488 0.220632 -27.1137 6.10459 3.32149 -17.3213 1.80011 -0.352992 -11.5681 9.12045 1.41775 -2.78752 -4.23661 1.94784 2.22543 
-0.615102 97.0533 60.7548 -99.8427 -48.3623 -97.0858 -168.599 -11.7688 93.2075 -38.1862 5.27085 -0.978394 65.0606 3.06344 0.141881 30.8382 -2.35943 15.6866 176.223 19.5144 97.7499 -28.638 -4.54069 3.4097 64.2937 -1.37323 -4.01516 11.9483 4.36518 5.28209 -1.00039 7.75286 -90.5738 11.3597 -2.25812 -0.916294 -0.309537 -2.29626 -0.815992 -22.8538 -1.87836 -1.55273 -2.84115 -1.87833 -1.55273 89.8709 -33.3332 -105.788 40.9722 -0.310877 9.7559 5.65007 -19.6344 -5.27848 -17.7865 -0.318851 -9.88757 -90.683 -51.328 78.0042 -13.9964 2.79331 -24.7817 8.43974 14.6119 -18.5961 0.850474 -0.337501 -13.1319 8.26086 1.09745 -0.796939 -4.79561 1.20758 1.43916 
-6.37864 97.9996 66.9822 -101.992 -47.811 -96.7515 -167.433 1.54533 98.1988 -58.1643 12.4108 0.931904 55.8164 -2.94372 -2.49232 9.8798 -12.6787 4.55487 176.589 12.8888 99.6936 -30.0437 -4.31049 3.50164 68.3943 -4.51527 -4.10971 14.0984 4.20985 3.41394 -0.5729 7.96156 -90.7223 10.9404 -1.47483 -1.29725 -0.730266 -1.53049 -1.2311 -23.264 -1.01682 -1.68047 -3.25134 -1.01684 -1.68048 88.9191 -33.0527 -107.687 42.1462 -3.18542 5.13577 4.32263 -21.9782 -9.20096 -17.99 -0.281191 -11.0565 -91.0267 -53.4859 77.9761 -17.2478 4.42813 -21.6967 8.13731 23.3572 -15.7552 -3.12967 -0.017048 -11.6964 8.45707 -0.193753 0.2395 -4.82689 -0.264766 0.986416 
